HIERARCHY
ROOT hip
{
  OFFSET 0 0 0
  CHANNELS 6 Xposition Yposition Zposition Zrotation Yrotation Xrotation
  JOINT abdomen
  {
    OFFSET 0 20.6881 -0.73152
    CHANNELS 3 Zrotation Xrotation Yrotation
    JOINT chest
    {
      OFFSET 0 11.7043 -0.48768
      CHANNELS 3 Zrotation Xrotation Yrotation
      JOINT neck
      {
        OFFSET 0 22.1894 -2.19456
        CHANNELS 3 Zrotation Xrotation Yrotation
        JOINT head
        {
          OFFSET -0.24384 7.07133 1.2192
          CHANNELS 3 Zrotation Xrotation Yrotation
          JOINT leftEye
          {
            OFFSET 4.14528 8.04674 8.04672
            CHANNELS 3 Zrotation Xrotation Yrotation
            End Site
            {
              OFFSET 1 0 0
            }
          }
          JOINT rightEye
          {
            OFFSET -3.6576 8.04674 8.04672
            CHANNELS 3 Zrotation Xrotation Yrotation
            End Site
            {
              OFFSET 1 0 0
            }
          }
        }
      }
      JOINT rCollar
      {
        OFFSET -2.68224 19.2634 -4.8768
        CHANNELS 3 Zrotation Xrotation Yrotation
        JOINT rShldr
        {
          OFFSET -8.77824 -1.95073 1.46304
          CHANNELS 3 Zrotation Xrotation Yrotation
          JOINT rForeArm
          {
            OFFSET -28.1742 -1.7115 0.48768
            CHANNELS 3 Zrotation Xrotation Yrotation
            JOINT rHand
            {
              OFFSET -22.5879 0.773209 7.07136
              CHANNELS 3 Zrotation Xrotation Yrotation
              JOINT rThumb1
              {
                OFFSET -1.2192 -0.487915 3.41376
                CHANNELS 3 Zrotation Xrotation Yrotation
                JOINT rThumb2
                {
                  OFFSET -3.37035 -0.52449 3.41376
                  CHANNELS 3 Zrotation Xrotation Yrotation
                  End Site
                  {
                    OFFSET -1.78271 -1.18214 1.43049
                  }
                }
              }
              JOINT rIndex1
              {
                OFFSET -7.75947 0.938293 5.60832
                CHANNELS 3 Zrotation Xrotation Yrotation
                JOINT rIndex2
                {
                  OFFSET -2.54057 -0.884171 1.56538
                  CHANNELS 3 Zrotation Xrotation Yrotation
                  End Site
                  {
                    OFFSET -1.62519 -0.234802 1.16502
                  }
                }
              }
              JOINT rMid1
              {
                OFFSET -8.24714 1.18213 3.41376
                CHANNELS 3 Zrotation Xrotation Yrotation
                JOINT rMid2
                {
                  OFFSET -3.10165 -0.590103 1.0647
                  CHANNELS 3 Zrotation Xrotation Yrotation
                  End Site
                  {
                    OFFSET -2.48547 -0.328903 0.83742
                  }
                }
              }
              JOINT rRing1
              {
                OFFSET -8.82822 0.546677 1.51678
                CHANNELS 3 Zrotation Xrotation Yrotation
                JOINT rRing2
                {
                  OFFSET -2.60934 -0.819778 -0.0198488
                  CHANNELS 3 Zrotation Xrotation Yrotation
                  End Site
                  {
                    OFFSET -2.33842 -0.294052 0.168128
                  }
                }
              }
              JOINT rPinky1
              {
                OFFSET -8.27202 -0.0477905 -0.4584
                CHANNELS 3 Zrotation Xrotation Yrotation
                JOINT rPinky2
                {
                  OFFSET -1.82734 -0.647385 -0.700984
                  CHANNELS 3 Zrotation Xrotation Yrotation
                  End Site
                  {
                    OFFSET -1.69225 -0.51767 -0.607171
                  }
                }
              }
            }
          }
        }
      }
      JOINT lCollar
      {
        OFFSET 2.68224 19.2634 -4.8768
        CHANNELS 3 Zrotation Xrotation Yrotation
        JOINT lShldr
        {
          OFFSET 8.77824 -1.95073 1.46304
          CHANNELS 3 Zrotation Xrotation Yrotation
          JOINT lForeArm
          {
            OFFSET 28.1742 -1.7115 0.48768
            CHANNELS 3 Zrotation Xrotation Yrotation
            JOINT lHand
            {
              OFFSET 22.5879 0.773209 7.07136
              CHANNELS 3 Zrotation Xrotation Yrotation
              JOINT lThumb1
              {
                OFFSET 1.2192 -0.487915 3.41376
                CHANNELS 3 Zrotation Xrotation Yrotation
                JOINT lThumb2
                {
                  OFFSET 3.37035 -0.52449 3.41376
                  CHANNELS 3 Zrotation Xrotation Yrotation
                  End Site
                  {
                    OFFSET 1.78271 -1.18214 1.43049
                  }
                }
              }
              JOINT lIndex1
              {
                OFFSET 7.75947 0.938293 5.60832
                CHANNELS 3 Zrotation Xrotation Yrotation
                JOINT lIndex2
                {
                  OFFSET 2.54057 -0.884171 1.56538
                  CHANNELS 3 Zrotation Xrotation Yrotation
                  End Site
                  {
                    OFFSET 1.62519 -0.234802 1.16502
                  }
                }
              }
              JOINT lMid1
              {
                OFFSET 8.24714 1.18213 3.41376
                CHANNELS 3 Zrotation Xrotation Yrotation
                JOINT lMid2
                {
                  OFFSET 3.10165 -0.590103 1.0647
                  CHANNELS 3 Zrotation Xrotation Yrotation
                  End Site
                  {
                    OFFSET 2.48547 -0.328903 0.83742
                  }
                }
              }
              JOINT lRing1
              {
                OFFSET 8.82822 0.546677 1.51678
                CHANNELS 3 Zrotation Xrotation Yrotation
                JOINT lRing2
                {
                  OFFSET 2.60934 -0.819778 -0.0198488
                  CHANNELS 3 Zrotation Xrotation Yrotation
                  End Site
                  {
                    OFFSET 2.33842 -0.294052 0.168128
                  }
                }
              }
              JOINT lPinky1
              {
                OFFSET 8.27202 -0.0477905 -0.4584
                CHANNELS 3 Zrotation Xrotation Yrotation
                JOINT lPinky2
                {
                  OFFSET 1.82734 -0.647385 -0.700984
                  CHANNELS 3 Zrotation Xrotation Yrotation
                  End Site
                  {
                    OFFSET 1.69225 -0.51767 -0.607171
                  }
                }
              }
            }
          }
        }
      }
    }
  }
  JOINT rButtock
  {
    OFFSET -8.77824 4.35084 1.2192
    CHANNELS 3 Zrotation Xrotation Yrotation
    JOINT rThigh
    {
      OFFSET 0 -1.70687 -2.19456
      CHANNELS 3 Zrotation Xrotation Yrotation
      JOINT rShin
      {
        OFFSET 0 -36.8199 0.73152
        CHANNELS 3 Zrotation Xrotation Yrotation
        JOINT rFoot
        {
          OFFSET 0.73152 -45.1104 -5.12064
          CHANNELS 3 Zrotation Xrotation Yrotation
          End Site
          {
            OFFSET -1.1221 -3.69964 12.103
          }
        }
      }
    }
  }
  JOINT lButtock
  {
    OFFSET 8.77824 4.35084 1.2192
    CHANNELS 3 Zrotation Xrotation Yrotation
    JOINT lThigh
    {
      OFFSET 0 -1.70687 -2.19456
      CHANNELS 3 Zrotation Xrotation Yrotation
      JOINT lShin
      {
        OFFSET 0 -36.8199 0.73152
        CHANNELS 3 Zrotation Xrotation Yrotation
        JOINT lFoot
        {
          OFFSET -0.73152 -45.1104 -5.12064
          CHANNELS 3 Zrotation Xrotation Yrotation
          End Site
          {
            OFFSET 1.1221 -3.69964 12.103
          }
        }
      }
    }
  }
}
MOTION
Frames:	5
Frame Time:	0.00833333
260.31260000000003 50.5938 -41.6267 -84.381109 73.936222 -70.29138 14.21351 -0.542016 -90.483513 4.570509 3.044242 94.499361 -7.371309 29.595342 -120.794161 34.980642 32.479986 128.526002 -10.11393 1.204056 -13.543679 -0.02627 0.001342 -5.849257 4.668118 -30.563339 -3.267124 -121.053778 -11.722277 -123.368941 -174.364121 -34.566911 -75.549485 -14.185933 -32.037109 -8.141384 -175.669024 -16.012384 92.683812 -152.494269 5.960824 87.947337 4.172766 -15.456697 -3.071572 -169.321879 -39.64819 104.853385 -170.85082 -62.743315 150.32453 -8.81572 44.572063 13.788402 -141.730121 1.57657 -177.889712 -151.092648 -13.010606 -178.881631 -26.767064 -33.249729 -36.422995 -147.622246 5.246998 -157.779442 -1.068186 -2.204325 1.91067 -80.439752 -17.281805 -79.459096 2.527684 9.432602 -20.406054 20.44967 72.866136 -21.888813 176.34952 -9.884871 -85.050011 0.808875 -55.055686 -3.499655 65.472689 36.037288 -51.789523 -50.577715 -47.429427 -14.36791 -148.163856 -70.23533 -114.522976 -14.500712 -31.961781 -3.065877 136.656791 -1.969613 -178.976312 -24.303784 29.673005 4.872808 -3.440527 10.154319 -3.793412 5.535153 -13.682572 4.858313 48.611644 17.381187 40.447648 -43.948109 33.300921 -147.143615 -39.251385 -4.8404 -82.392579 -29.645278 46.998867 152.810378 4.264098 -2.866347 2.58791 98.165752 -56.542344 -6.447962 -108.824569 -16.411882 -47.027281 4.853814 24.893952 130.821861
261.27090000000004 50.8175 -41.951 -84.675236 74.303412 -70.297985 9.090252 -0.780252 85.630155 -3.995234 -8.118815 -82.045816 7.387558 30.442804 152.471988 -23.217247 40.785069 -128.132811 -10.477451 1.399764 -15.177867 -1.251796 0.080932 -7.398079 7.282368 -68.516459 -10.024634 -104.956097 -36.60346 -85.444442 -94.469453 28.329933 -80.261309 -172.584951 -57.639456 161.640644 -179.00218 -19.351648 92.394655 -119.268661 22.463226 61.015758 -138.911945 10.486863 111.236348 178.314225 -25.34602 115.58767 -4.087239 24.48113 1.24144 22.319578 -47.144157 11.38214 -141.786296 -2.476404 -176.210401 -153.36687 9.162197 177.537191 -97.284318 -34.085212 -99.332959 -135.872253 32.358138 -158.047062 154.69217 -2.363085 -162.855828 -142.659266 29.976136 114.568568 -178.218273 11.025006 -126.163774 -108.195428 -59.497457 -109.048832 -1.124326 -4.897762 -4.55012 39.222574 25.464015 -34.696959 122.551022 20.200573 -97.168889 172.736248 -16.020779 -115.028508 -1.255256 -5.149104 -4.861169 134.832323 54.256769 -121.344033 135.649795 0.88969 -178.10614 126.4841 -56.400483 162.471779 -0.057104 2.377298 -0.331568 0.088477 -5.086995 -0.156684 -146.80887 76.875362 -29.501147 84.13589 80.375604 -60.280163 -26.514576 -32.626421 -14.012706 -16.52331 81.383449 116.521285 173.263845 78.833353 7.30591 -143.530103 -18.325859 150.672615 119.638525 -59.818436 5.779338 -44.910313 32.949591 -45.405794
262.3008 51.0635 -42.3177 -84.853254 74.724639 -70.207697 13.379399 -1.839698 -101.376979 2.979074 3.775638 105.371979 -7.27872 15.752475 -36.270794 29.529004 -17.278427 56.242472 -10.886126 1.643359 -17.11924 -2.516039 0.19722 -8.962504 -154.046774 4.372568 158.238533 -161.679522 32.286965 101.214158 -54.026402 29.967279 158.029551 -26.536363 -83.604981 -38.773783 -179.035879 -19.168997 92.602053 -98.529286 23.077381 41.676453 -132.843408 17.720506 106.975175 -171.841245 -6.308214 112.809105 -0.928078 15.973248 -1.82432 -155.273609 17.693925 130.154791 2.891011 0.415873 -2.395536 -156.462918 -17.352814 176.636191 -111.956223 -24.931029 -111.042548 -19.009502 -51.110785 -31.848383 11.307796 41.042185 -13.146692 -135.609383 0.639752 -131.679152 -173.717517 -41.759666 -118.944415 -111.192029 -58.833741 -112.1472 -2.278806 -6.434095 -4.641098 -10.619923 -15.851415 8.582509 52.392101 33.645294 -40.565683 166.537878 -11.438355 -105.658875 -81.626592 -75.057016 -54.113864 166.956468 -4.019235 -139.833062 -10.31794 -0.85863 -2.252011 127.528534 74.029409 -125.426765 6.720413 -10.715535 6.081578 -2.064438 -6.52892 -1.031268 173.153958 79.163625 3.041223 88.613085 85.204195 -174.660727 28.641841 -7.352787 -83.895419 -153.256663 -3.680136 57.334248 -151.183373 78.229347 -21.353461 -149.654743 -14.094612 143.427578 111.167591 -35.102407 175.227192 109.578488 -43.229856 -171.272284
263.3986 51.334900000000005 -42.7262 -84.899353 75.207324 -70.010921 12.609851 -0.561242 -60.666764 6.057647 0.465597 64.765173 10.072652 17.424994 71.679107 -33.763937 -5.109731 -58.388894 -11.318528 1.939836 -19.390129 -3.813959 0.352803 -10.566139 -142.962286 37.014865 146.733461 73.657231 -16.141695 83.878383 -117.51618 -15.055635 30.386588 -170.690524 -47.464024 160.370206 -155.840562 6.854117 91.455128 -28.200276 -33.359752 6.705438 3.323913 -14.046544 -2.787466 -117.318965 27.060146 103.651478 23.91317 -76.328892 -6.077792 -11.504198 43.896376 17.699189 2.770631 6.535075 -0.846064 -155.047372 -1.7742 175.473884 19.217061 28.34847 -4.598175 -108.941171 -52.179016 -95.700885 148.443249 27.233826 -154.184425 74.959379 -33.35342 59.219516 145.147691 -54.984877 140.243765 5.861989 53.035989 -13.488847 1.748526 -3.656952 -4.89402 -38.883933 -58.2576 16.359712 -21.049545 -34.831261 -2.289832 -63.573491 -50.270988 -7.752466 1.448477 0.163457 -6.026514 178.635237 -48.453862 -147.236928 -10.491856 9.620591 -5.718835 7.561724 -0.25941 1.743488 119.033098 -33.840931 113.585604 162.087838 53.741655 140.850425 0.67115 -3.546689 3.358465 -7.607035 12.619321 177.841786 -8.82842 -32.08644 -152.093671 -70.180895 57.963394 -9.552741 -175.69007 79.451797 -0.228619 -146.162702 -14.636468 125.952476 108.63865 -20.882385 168.803973 -36.634473 71.026734 132.34053
264.55899999999997 51.634899999999995 -43.175000000000004 -84.79538 75.758953 -69.697167 8.27924 -0.307648 43.64242 1.413085 -8.763188 -39.582446 -9.319243 25.586617 -98.221727 41.008026 18.73414 106.756141 -11.775058 2.291748 -21.954439 -5.14533 0.552091 -12.240669 -1.133828 5.430318 2.420989 58.638708 -11.575847 -32.820675 172.248305 -29.354689 33.502817 -145.722509 28.769094 130.121633 3.771277 -3.339889 -4.11335 -165.690417 -73.153527 107.708577 36.282123 -59.452615 2.593548 28.670195 -20.343633 -17.589995 1.737757 5.679733 -5.029762 8.374728 -8.005954 8.698768 2.466109 11.398579 0.337209 -150.894217 -41.759101 -177.64264 20.645727 32.59582 -4.33184 9.879112 61.344305 9.13529 32.691731 60.608511 -35.315234 62.940535 10.414289 -25.655918 -6.514378 7.039058 53.519506 -99.369846 -60.545301 -101.053396 -12.297412 -15.747142 -5.281024 -11.183558 -22.506368 17.063205 154.182679 -14.244339 -113.596141 11.693092 31.751623 5.591132 161.061621 -4.428463 -136.933109 1.930256 19.689916 -8.329997 133.255981 -1.594522 -178.551742 -29.651161 8.639793 9.505518 -41.131547 77.071434 8.185297 165.208252 73.56448 158.270732 172.153378 79.607797 3.723893 118.869463 84.700085 175.583151 29.594125 -23.706325 -50.019601 -111.458484 -58.194752 160.386435 110.123356 66.432899 54.717023 -128.060069 -24.632463 78.924542 99.256071 4.2643 -88.066583 26.498358 -8.954421 1.121549
